<svg width="32" height="32" viewBox="0 0 32 32" fill="none" xmlns="http://www.w3.org/2000/svg">
<path d="M7.4 13.45L15.4 7.45C15.7556 7.18333 16.2444 7.18333 16.6 7.45L24.6 13.45C24.8518 13.6389 25 13.9352 25 14.25V24C25 24.5523 24.5523 25 24 25H20.75C20.1977 25 19.75 24.5523 19.75 24V20.75C19.75 20.1977 19.3023 19.75 18.75 19.75H13.25C12.6977 19.75 12.25 20.1977 12.25 20.75V24C12.25 24.5523 11.8023 25 11.25 25H8C7.44772 25 7 24.5523 7 24V14.25C7 13.9352 7.14819 13.6389 7.4 13.45Z" stroke="#888888" stroke-width="2" stroke-linecap="round" stroke-linejoin="round"/>
</svg>
