<svg width="335" height="48" viewBox="0 0 335 48" fill="none" xmlns="http://www.w3.org/2000/svg">
<rect x="0.5" y="0.5" width="334" height="47" rx="4.5" stroke="#AFAFAF"/>
<path d="M133.642 18.6777H125.261V19.7441H132.356V19.7578C132.35 20.8994 132.35 22.1777 131.987 23.9277H123.894V24.9941H128.788V30.1758H130.101V24.9941H135.063V23.9277H133.3C133.642 22.1846 133.642 20.9199 133.642 19.7578V18.6777ZM145.782 18.4316H137.401V19.4707H144.497C144.497 20.2363 144.47 21.1729 144.217 22.4102H135.993V23.4492H147.204V22.4102H145.522C145.789 21.0771 145.789 20.0449 145.782 19.2383V18.4316ZM137.306 25.582H144.511V26.7578H137.319V30.0391H146.11V29H138.618V27.7559H145.796V24.543H137.306V25.582ZM159.304 27.6055H154.313V25.459H158.224V24.3926H150.745V22.6016H157.937V18.7734H149.433V19.8398H156.651V21.5625H149.46V25.459H153.028V27.6055H148.093V28.6992H159.304V27.6055ZM168.108 21.0293V18.9375H166.796V21.0293C166.796 23.3672 165.442 25.7119 163.515 26.5664L164.308 27.6602C165.777 26.9424 166.905 25.4658 167.473 23.668C168.047 25.3428 169.161 26.7168 170.569 27.3867L171.349 26.3613C169.448 25.5205 168.095 23.2646 168.108 21.0293ZM172.456 30.1895H173.755V17.9121H172.456V30.1895ZM179.989 20.1133V19.7715H182.628V18.7188H175.997V19.7715H178.69V20.0996C178.684 21.7881 177.528 23.374 175.614 24.0234L176.312 25.0352C177.747 24.5293 178.813 23.4834 179.347 22.1641C179.88 23.3672 180.898 24.3242 182.286 24.8027L182.942 23.791C181.069 23.1621 179.982 21.6787 179.989 20.1133ZM177.241 26.9492H184.036V30.1621H185.335V25.8965H177.241V26.9492ZM184.036 25.2949H185.335V22.1504H187.112V21.0566H185.335V17.9121H184.036V25.2949ZM197.353 17.9121H196.067V30.1621H197.353V23.9551H199.321V22.875H197.353V17.9121ZM187.741 20.8926H195.001V19.8262H192.062V18.0762H190.763V19.8262H187.741V20.8926ZM188.37 24.6387C188.37 26.3203 189.655 27.4893 191.419 27.4961C193.176 27.4893 194.461 26.3203 194.468 24.6387C194.461 22.9707 193.176 21.7949 191.419 21.7949C189.655 21.7949 188.37 22.9707 188.37 24.6387ZM189.614 24.6387C189.607 23.5928 190.373 22.8682 191.419 22.8613C192.458 22.8682 193.217 23.5928 193.224 24.6387C193.217 25.7051 192.458 26.416 191.419 26.4023C190.373 26.416 189.607 25.7051 189.614 24.6387ZM210.095 17.9121H208.782V30.1621H210.095V17.9121ZM200.032 26.8809L200.716 27.9336C204.92 25.917 206.444 22.8135 206.444 19.2246H200.62V20.2637H205.132C204.879 23.1211 203.286 25.3291 200.032 26.8809Z" fill="#232323"/>
<g clip-path="url(#clip0_967_2971)">
<path d="M29.3101 17.1933C33.6965 15.5925 36.33 18.5352 36.33 18.5352L39.6928 15.1241C37.0032 12.1562 32.4438 12.0071 32.4438 12.0071C27.1004 11.8332 24.0609 14.9159 24.0609 14.9159C23.0932 15.7479 22.0684 16.97 21.2903 18.5289L25.2021 21.6111C26.2553 18.487 29.3105 17.1933 29.3105 17.1933L29.3101 17.1933Z" fill="#FE2C25"/>
<path d="M25.191 21.6424C25.1943 21.632 25.1984 21.6215 25.2017 21.611L21.2899 18.5288C20.2545 20.603 19.656 23.273 20.2123 26.4151C20.4102 27.5329 20.7712 28.5321 21.2271 29.4178L25.2166 26.2212C24.7866 24.873 24.6541 23.2625 25.191 21.6424Z" fill="#FFBB00"/>
<path d="M34.9538 30.5686C30.0589 32.6575 26.9158 29.1233 26.9158 29.1233C26.2925 28.5309 25.6226 27.4927 25.217 26.2212L21.2275 29.4178C23.2072 33.2629 26.9777 34.968 26.9777 34.968C32.027 37.0565 36.0103 35.6891 39.2212 33.4016C39.3711 33.2948 39.5153 33.1821 39.6541 33.0647L35.8707 30.0429C35.3474 30.4203 34.9538 30.5678 34.9538 30.5678L34.9538 30.5686Z" fill="#00AC47"/>
<path d="M31.8391 21.9983L31.8391 26.4966L38.2142 26.4966C37.7372 28.3877 36.6571 29.4757 35.8707 30.0434L39.6541 33.0653C40.6697 32.2064 41.3875 31.0891 41.8902 30.009C42.6308 28.4179 43 26.6755 43 24.9159L43 21.9983L31.8391 21.9983Z" fill="#2C83FC"/>
</g>
<defs>
<clipPath id="clip0_967_2971">
<rect width="23" height="24" fill="white" transform="translate(20 12)"/>
</clipPath>
</defs>
</svg>
