<svg width="335" height="48" viewBox="0 0 335 48" fill="none" xmlns="http://www.w3.org/2000/svg">
<rect width="335" height="48" rx="5" fill="#FBE34D"/>
<path d="M124.215 19.1562H118.623V20.209H122.909C122.861 20.9062 122.759 21.5693 122.574 22.1982L117.98 22.5059L118.172 23.627L122.171 23.251C121.446 24.8027 120.127 26.1221 117.912 27.209L118.623 28.1797C123.094 25.9785 124.201 22.7725 124.215 19.1562ZM126.088 30.1484H127.387V23.873H129.287V22.8066H127.387V17.9121H126.088V30.1484ZM136.314 19.1562H130.723V20.209H135.009C134.961 20.9062 134.858 21.5693 134.674 22.1982L130.08 22.5059L130.271 23.627L134.271 23.251C133.546 24.8027 132.227 26.1221 130.012 27.209L130.723 28.1797C135.193 25.9785 136.301 22.7725 136.314 19.1562ZM138.188 30.1484H139.486V23.873H141.387V22.8066H139.486V17.9121H138.188V30.1484ZM147.621 18.6504C145.017 18.6572 143.103 19.9492 143.109 21.9043C143.103 23.7363 144.709 24.96 146.979 25.1445V27.5508H142.043V28.6309H153.254V27.5508H148.264V25.1445C150.547 24.96 152.146 23.7363 152.146 21.9043C152.146 19.9492 150.239 18.6572 147.621 18.6504ZM144.367 21.9043C144.367 20.5781 145.734 19.7031 147.621 19.7168C149.521 19.7031 150.882 20.5781 150.889 21.9043C150.882 23.2783 149.521 24.1328 147.621 24.1465C145.734 24.1328 144.367 23.2783 144.367 21.9043ZM165.354 27.6055H160.363V25.459H164.273V24.3926H156.795V22.6016H163.986V18.7734H155.482V19.8398H162.701V21.5625H155.51V25.459H159.078V27.6055H154.143V28.6992H165.354V27.6055ZM174.158 21.0293V18.9375H172.846V21.0293C172.846 23.3672 171.492 25.7119 169.564 26.5664L170.357 27.6602C171.827 26.9424 172.955 25.4658 173.522 23.668C174.097 25.3428 175.211 26.7168 176.619 27.3867L177.398 26.3613C175.498 25.5205 174.145 23.2646 174.158 21.0293ZM178.506 30.1895H179.805V17.9121H178.506V30.1895ZM186.039 20.1133V19.7715H188.678V18.7188H182.047V19.7715H184.74V20.0996C184.733 21.7881 183.578 23.374 181.664 24.0234L182.361 25.0352C183.797 24.5293 184.863 23.4834 185.396 22.1641C185.93 23.3672 186.948 24.3242 188.336 24.8027L188.992 23.791C187.119 23.1621 186.032 21.6787 186.039 20.1133ZM183.291 26.9492H190.086V30.1621H191.385V25.8965H183.291V26.9492ZM190.086 25.2949H191.385V22.1504H193.162V21.0566H191.385V17.9121H190.086V25.2949ZM203.402 17.9121H202.117V30.1621H203.402V23.9551H205.371V22.875H203.402V17.9121ZM193.791 20.8926H201.051V19.8262H198.111V18.0762H196.812V19.8262H193.791V20.8926ZM194.42 24.6387C194.42 26.3203 195.705 27.4893 197.469 27.4961C199.226 27.4893 200.511 26.3203 200.518 24.6387C200.511 22.9707 199.226 21.7949 197.469 21.7949C195.705 21.7949 194.42 22.9707 194.42 24.6387ZM195.664 24.6387C195.657 23.5928 196.423 22.8682 197.469 22.8613C198.508 22.8682 199.267 23.5928 199.273 24.6387C199.267 25.7051 198.508 26.416 197.469 26.4023C196.423 26.416 195.657 25.7051 195.664 24.6387ZM216.145 17.9121H214.832V30.1621H216.145V17.9121ZM206.082 26.8809L206.766 27.9336C210.97 25.917 212.494 22.8135 212.494 19.2246H206.67V20.2637H211.182C210.929 23.1211 209.336 25.3291 206.082 26.8809Z" fill="#232323"/>
<ellipse cx="32" cy="21.8028" rx="12" ry="9.80282" fill="#371F1E"/>
<path d="M25.1375 34.3979L29.1467 31.3928C29.7908 30.91 29.6297 29.903 28.8672 29.6452L25.7295 28.5846C25.1633 28.3932 24.5568 28.738 24.4315 29.3223L23.5599 33.3881C23.3661 34.2921 24.3977 34.9524 25.1375 34.3979Z" fill="#371F1E"/>
</svg>
